<svg width="10" height="8" viewBox="0 0 10 8" fill="none" xmlns="http://www.w3.org/2000/svg">
<path d="M9.80371 1.52979C9.80371 1.72314 9.71777 1.89502 9.58887 2.02393L4.08887 7.52393C3.95996 7.65283 3.78809 7.71729 3.61621 7.71729C3.42285 7.71729 3.25098 7.65283 3.12207 7.52393L0.37207 4.77393C0.243164 4.64502 0.178711 4.47314 0.178711 4.27979C0.178711 3.89307 0.479492 3.59229 0.866211 3.59229C1.03809 3.59229 1.20996 3.67822 1.33887 3.80713L3.61621 6.06299L8.62207 1.05713C8.75098 0.928223 8.92285 0.842285 9.11621 0.842285C9.48145 0.842285 9.80371 1.14307 9.80371 1.52979Z" fill="#0560FD"/>
</svg>
