<svg width="20" height="21" viewBox="0 0 20 21" fill="none" xmlns="http://www.w3.org/2000/svg">
<path id="Union" fill-rule="evenodd" clip-rule="evenodd" d="M2.28545 10.6021C2.28545 6.2759 5.79251 2.76885 10.1187 2.76885C14.4448 2.76885 17.9519 6.2759 17.9519 10.6021C17.9519 14.5966 14.9619 17.8928 11.0978 18.3747V12.5604H13.0561C13.5969 12.5604 14.0353 12.122 14.0353 11.5812C14.0353 11.0405 13.5969 10.6021 13.0561 10.6021H11.0978V8.64377C11.0978 8.103 11.5362 7.66461 12.077 7.66461H12.5666C13.1073 7.66461 13.5457 7.22623 13.5457 6.68546C13.5457 6.14469 13.1073 5.70631 12.5666 5.70631H12.077C10.4547 5.70631 9.13952 7.02145 9.13952 8.64377V10.6021H7.18122C6.64045 10.6021 6.20206 11.0405 6.20206 11.5812C6.20206 12.122 6.64045 12.5604 7.18122 12.5604H9.13952V18.3747C5.27548 17.8928 2.28545 14.5966 2.28545 10.6021ZM10.1187 20.3936C15.5264 20.3936 19.9102 16.0098 19.9102 10.6021C19.9102 5.19436 15.5264 0.810547 10.1187 0.810547C4.71096 0.810547 0.327148 5.19436 0.327148 10.6021C0.327148 16.0098 4.71096 20.3936 10.1187 20.3936Z" fill="#0560FD"/>
</svg>
