<svg width="18" height="19" viewBox="0 0 18 19" fill="none" xmlns="http://www.w3.org/2000/svg">
<g id="Union">
<path fill-rule="evenodd" clip-rule="evenodd" d="M5.0569 9.60339C5.0569 7.4403 6.81042 5.68678 8.97351 5.68678C11.1366 5.68678 12.8901 7.4403 12.8901 9.60339C12.8901 11.7665 11.1366 13.52 8.97351 13.52C6.81042 13.52 5.0569 11.7665 5.0569 9.60339ZM8.97351 7.64508C7.89196 7.64508 7.0152 8.52185 7.0152 9.60339C7.0152 10.6849 7.89196 11.5617 8.97351 11.5617C10.055 11.5617 10.9318 10.6849 10.9318 9.60339C10.9318 8.52185 10.055 7.64508 8.97351 7.64508Z" fill="#0560FD"/>
<path d="M13.3797 6.17635C13.9205 6.17635 14.3588 5.73797 14.3588 5.1972C14.3588 4.65643 13.9205 4.21805 13.3797 4.21805C12.8389 4.21805 12.4005 4.65643 12.4005 5.1972C12.4005 5.73797 12.8389 6.17635 13.3797 6.17635Z" fill="#0560FD"/>
<path fill-rule="evenodd" clip-rule="evenodd" d="M0.161133 5.68678C0.161133 2.98292 2.35304 0.791016 5.0569 0.791016H12.8901C15.594 0.791016 17.7859 2.98292 17.7859 5.68678V13.52C17.7859 16.2239 15.594 18.4158 12.8901 18.4158H5.0569C2.35304 18.4158 0.161133 16.2239 0.161133 13.52V5.68678ZM5.0569 2.74932C3.43458 2.74932 2.11944 4.06447 2.11944 5.68678V13.52C2.11944 15.1423 3.43458 16.4575 5.0569 16.4575H12.8901C14.5124 16.4575 15.8276 15.1423 15.8276 13.52V5.68678C15.8276 4.06447 14.5124 2.74932 12.8901 2.74932H5.0569Z" fill="#0560FD"/>
</g>
</svg>
