<svg width="68" height="68" viewBox="0 0 68 68" fill="none" xmlns="http://www.w3.org/2000/svg">
<path d="M57.2075 33.7446C57.2075 46.5626 46.8165 56.9536 33.9985 56.9536C21.1806 56.9536 10.7896 46.5626 10.7896 33.7446C10.7896 20.9267 21.1806 10.5356 33.9985 10.5356C46.8165 10.5356 57.2075 20.9267 57.2075 33.7446Z" fill="#0560FD"/>
<path d="M28.2231 27.5649C28.481 27.8228 28.481 28.2954 28.1802 28.5103L22.5942 33.4946L28.1802 38.522C28.481 38.7368 28.481 39.2095 28.2231 39.4673C28.0942 39.6392 27.9224 39.6821 27.7505 39.6821C27.5786 39.6821 27.4067 39.6392 27.2778 39.5103L21.0903 34.0103C20.9185 33.8813 20.8755 33.7095 20.8755 33.4946C20.8755 33.3228 20.9185 33.1509 21.0474 32.979L27.2349 27.522C27.5356 27.2642 27.9653 27.2642 28.2231 27.5649ZM48.1177 32.979C48.2896 33.1509 48.3755 33.3228 48.3755 33.4946C48.3755 33.7095 48.2896 33.8813 48.1177 34.0532L41.9302 39.5103C41.8013 39.6392 41.6294 39.6821 41.5005 39.6821C41.2856 39.6821 41.1138 39.6392 40.9849 39.4673C40.7271 39.1665 40.7271 38.7368 41.0278 38.479L46.6138 33.4946L41.0278 28.5103C40.7271 28.2954 40.7271 27.8228 40.9849 27.5649C41.1997 27.2642 41.6724 27.2642 41.9302 27.522L48.1177 32.979ZM38.2778 22.5376C38.6216 22.6665 38.7935 23.0532 38.7075 23.4399L31.8325 44.0649C31.7036 44.3228 31.4458 44.4946 31.188 44.4946C31.1021 44.4946 31.0161 44.4946 30.9302 44.4517C30.5864 44.3228 30.4146 43.936 30.5005 43.5923L37.3755 22.9673C37.5044 22.6235 37.8911 22.4517 38.2778 22.5376Z" fill="#F8FAFE"/>
</svg>
