<svg width="67" height="68" viewBox="0 0 67 68" fill="none" xmlns="http://www.w3.org/2000/svg">
<path d="M56.7119 33.7446C56.7119 46.5626 46.3209 56.9536 33.5029 56.9536C20.685 56.9536 10.2939 46.5626 10.2939 33.7446C10.2939 20.9267 20.685 10.5356 33.5029 10.5356C46.3209 10.5356 56.7119 20.9267 56.7119 33.7446Z" fill="#0560FD"/>
<path d="M42.3799 26.6196C43.8838 26.6196 45.1299 27.8657 45.1299 29.3696V40.3696C45.1299 41.9165 43.8838 43.1196 42.3799 43.1196H25.8799C24.333 43.1196 23.1299 41.9165 23.1299 40.3696V29.3696C23.1299 27.8657 24.333 26.6196 25.8799 26.6196H28.6299V24.5571C28.6299 23.4399 29.5322 22.4946 30.6924 22.4946H37.5674C38.6846 22.4946 39.6299 23.4399 39.6299 24.5571V26.6196H42.3799ZM30.0049 24.5571V26.6196H38.2549V24.5571C38.2549 24.2134 37.9111 23.8696 37.5674 23.8696H30.6924C30.3057 23.8696 30.0049 24.2134 30.0049 24.5571ZM43.7549 40.3696V34.8696H37.5674V37.6196C37.5674 38.0063 37.2236 38.3071 36.8799 38.3071H31.3799C30.9932 38.3071 30.6924 38.0063 30.6924 37.6196V34.8696H24.5049V40.3696C24.5049 41.1431 25.1064 41.7446 25.8799 41.7446H42.3799C43.1104 41.7446 43.7549 41.1431 43.7549 40.3696ZM32.0674 36.9321H36.1924V34.8696H32.0674V36.9321ZM43.7549 33.4946V29.3696C43.7549 28.6392 43.1104 27.9946 42.3799 27.9946H25.8799C25.1064 27.9946 24.5049 28.6392 24.5049 29.3696V33.4946H43.7549Z" fill="#F8FAFE"/>
</svg>
