<svg width="68" height="68" viewBox="0 0 68 68" fill="none" xmlns="http://www.w3.org/2000/svg">
<path d="M57.4497 33.7446C57.4497 46.5626 47.0587 56.9536 34.2407 56.9536C21.4228 56.9536 11.0317 46.5626 11.0317 33.7446C11.0317 20.9267 21.4228 10.5356 34.2407 10.5356C47.0587 10.5356 57.4497 20.9267 57.4497 33.7446Z" fill="#0560FD"/>
<path d="M47.6997 25.2876C47.6997 26.0181 47.4419 26.7485 46.9263 27.2642L35.2817 38.9087C35.2817 39.0806 35.2817 39.2524 35.2817 39.3813C35.2817 43.5493 30.77 44.4946 26.645 44.4946H24.3677C23.5942 44.4946 22.9927 43.8071 22.9927 43.1196C22.9927 42.3892 23.5942 41.7446 24.3677 41.7446C25.6567 41.7446 26.4731 40.9282 26.4731 39.897C26.4731 39.6821 26.4302 39.6392 26.4302 39.2954C26.4302 36.8462 28.4067 34.8696 30.8989 34.8696C31.0278 34.8696 31.1997 34.9126 31.3716 34.9556L42.9731 23.311C43.4888 22.7954 44.2192 22.4946 44.9497 22.4946C46.4536 22.4946 47.6997 23.7407 47.6997 25.2876ZM33.9497 39.3813C33.9497 39.2954 33.9497 39.2095 33.9497 39.1665L31.0708 36.2876C30.1685 36.2017 27.8052 36.8462 27.8052 39.3384C27.8052 39.5962 27.8481 39.6821 27.8481 39.9399C27.8481 42.4321 25.4849 43.1196 24.3677 43.1196H26.645C29.8677 43.1196 33.9497 42.561 33.9497 39.3813ZM34.4653 37.7485L37.2153 34.9985L35.1958 33.022L32.4458 35.772L34.4653 37.7485ZM46.3677 25.2876C46.3677 24.5142 45.7231 23.8696 44.9497 23.8696C44.563 23.8696 44.2192 24.0415 43.9185 24.2993L36.2271 32.0337L38.2036 34.0103L45.938 26.3188C46.1958 26.0181 46.3677 25.6743 46.3677 25.2876ZM44.3911 37.061C44.7778 37.4478 45.0356 37.9204 45.1646 38.436L46.3247 43.6782C46.3247 43.7212 46.3677 43.8071 46.3677 43.8501C46.3677 44.1938 46.0239 44.4946 45.6802 44.4946C45.6372 44.4946 45.5513 44.4946 45.5083 44.4946C45.5083 44.4946 41.8989 43.7212 40.2661 43.3345C39.3208 43.1196 39.1489 42.8188 36.5708 40.2407C36.6138 39.9829 36.6567 39.7251 36.6567 39.4673L37.2153 38.9087L39.9224 41.6587C40.2661 42.0024 40.2661 41.9595 44.7349 42.9478L43.7896 38.7368C43.7466 38.479 43.6177 38.2212 43.4458 38.0493L40.7388 35.3853L41.7271 34.397L44.3911 37.061ZM29.9536 33.6235C24.7974 28.4673 24.3247 28.3384 24.3677 26.8774C24.3677 26.1899 24.6255 25.4595 25.1411 24.9438L26.7739 23.311C27.2896 22.7954 28.02 22.4946 28.7075 22.4946C29.395 22.4946 30.1255 22.7954 30.6411 23.311L35.7974 28.5103L34.8521 29.4985L32.7466 27.3931L29.2231 30.9595L31.3286 32.979L30.856 33.4946C30.5122 33.4946 30.2544 33.5806 29.9536 33.6235ZM25.7427 26.8774C25.7427 27.2212 25.8716 27.5649 26.1294 27.8228L28.2778 30.0142L31.8442 26.4478L29.6958 24.2993C29.438 24.0415 29.0942 23.8696 28.7075 23.8696C28.3638 23.8696 27.9771 24.0415 27.7192 24.2993L26.1294 25.8892C25.8716 26.1899 25.7427 26.5337 25.7427 26.8774Z" fill="#F8FAFE"/>
</svg>
