<svg width="15" height="15" viewBox="0 0 15 15" fill="none" xmlns="http://www.w3.org/2000/svg">
<path d="M7.53955 0.549316C11.395 0.549316 14.5396 3.69385 14.5396 7.54932C14.5396 11.4321 11.395 14.5493 7.53955 14.5493C3.65674 14.5493 0.539551 11.4321 0.539551 7.54932C0.539551 3.69385 3.65674 0.549316 7.53955 0.549316ZM9.72705 8.83447L8.44189 7.57666L9.72705 6.2915C10.0005 6.01807 10.0005 5.60791 9.72705 5.36182C9.48096 5.08838 9.0708 5.08838 8.82471 5.36182L7.53955 6.64697L6.22705 5.33447C5.98096 5.06104 5.5708 5.06104 5.32471 5.33447C5.05127 5.58057 5.05127 5.99072 5.32471 6.26416L6.60986 7.54932L5.32471 8.83447C5.05127 9.10791 5.05127 9.51807 5.32471 9.76416C5.5708 10.0376 5.98096 10.0376 6.22705 9.76416L7.53955 8.479L8.79736 9.76416C9.04346 10.0376 9.45361 10.0376 9.72705 9.76416C9.97314 9.51807 9.97314 9.10791 9.72705 8.83447Z" fill="#DD4D4D"/>
</svg>
