<svg width="15" height="15" viewBox="0 0 15 15" fill="none" xmlns="http://www.w3.org/2000/svg">
<path d="M7.53955 0.600098C11.395 0.600098 14.5396 3.74463 14.5396 7.6001C14.5396 11.4829 11.395 14.6001 7.53955 14.6001C3.65674 14.6001 0.539551 11.4829 0.539551 7.6001C0.539551 3.74463 3.65674 0.600098 7.53955 0.600098ZM10.6841 6.39697C10.9849 6.09619 10.9849 5.63135 10.6841 5.33057C10.3833 5.02979 9.91846 5.02979 9.61768 5.33057L6.66455 8.28369L5.43408 7.08057C5.1333 6.77979 4.66846 6.77979 4.36768 7.08057C4.06689 7.38135 4.06689 7.84619 4.36768 8.14697L6.11768 9.89697C6.25439 10.061 6.4458 10.1157 6.66455 10.1157C6.85596 10.1157 7.04736 10.061 7.18408 9.89697L10.6841 6.39697Z" fill="#0560FD"/>
</svg>
