<svg width="43" height="43" viewBox="0 0 43 43" fill="none" xmlns="http://www.w3.org/2000/svg">
<path d="M23.5687 11.746C24.5657 13.3794 25.2268 15.1954 25.513 17.0875C25.7993 18.9797 25.705 20.9099 25.2357 22.7652C26.8494 22.5783 28.4034 22.0438 29.7907 21.1985C31.065 20.4283 32.1747 19.414 33.0561 18.2139C33.9374 17.0138 34.5732 15.6514 34.9267 14.205C35.2803 12.7585 35.3447 11.2565 35.1163 9.78515C34.8879 8.31376 34.3712 6.90195 33.5959 5.63074C32.8205 4.35954 31.8018 3.25396 30.5981 2.37745C29.3944 1.50094 28.0295 0.870764 26.5816 0.523078C25.1338 0.175392 23.6315 0.117043 22.1611 0.35138C20.6906 0.585717 19.2809 1.10813 18.0128 1.88863C16.5753 2.76519 15.415 3.91269 14.5353 5.22116C16.3995 5.65332 18.1587 6.45316 19.7098 7.57383C21.2609 8.6945 22.5729 10.1119 23.5687 11.746Z" fill="#0560FD"/>
<path d="M11.7462 19.4758C13.3797 18.4783 15.196 17.8171 17.0885 17.5308C18.9809 17.2446 20.9115 17.339 22.767 17.8087C22.5793 16.195 22.0443 14.641 21.1987 13.2538C19.6307 10.7063 17.1171 8.88373 14.2084 8.18522C11.2996 7.48671 8.23258 7.96911 5.67869 9.52683C3.1248 11.0845 1.29211 13.5907 0.581818 16.4966C-0.128476 19.4025 0.341493 22.4714 1.88884 25.0316C2.76541 26.4676 3.91291 27.6294 5.22297 28.5108C5.6543 26.6461 6.45362 24.8862 7.57405 23.3345C8.69448 21.7827 10.1135 20.4703 11.7478 19.4742L11.7462 19.4758Z" fill="#0560FD"/>
<path d="M25.0063 41.1109C26.3926 40.2636 27.579 39.1262 28.4838 37.7768C26.6194 37.3453 24.8598 36.546 23.3083 35.4255C21.7569 34.3051 20.4447 32.8862 19.4489 31.252C18.452 29.6188 17.7912 27.803 17.5052 25.9111C17.2192 24.0192 17.3138 22.0892 17.7834 20.2344C16.1692 20.4213 14.6147 20.9558 13.2269 21.801C11.9525 22.5712 10.8428 23.5855 9.96145 24.7856C9.08007 25.9858 8.44437 27.3481 8.09082 28.7946C7.73726 30.241 7.67283 31.743 7.9012 33.2144C8.12958 34.6858 8.64627 36.0976 9.42163 37.3688C10.197 38.64 11.2157 39.7456 12.4194 40.6221C13.6231 41.4986 14.9881 42.1288 16.4359 42.4765C17.8838 42.8241 19.386 42.8825 20.8565 42.6482C22.3269 42.4138 23.7366 41.8914 25.0047 41.1109H25.0063Z" fill="#0560FD"/>
<path d="M31.2537 23.5956C29.6203 24.5927 27.8044 25.2538 25.9122 25.54C24.0201 25.8263 22.0898 25.732 20.2346 25.2627C20.4214 26.8764 20.9559 28.4304 21.8012 29.8176C23.3693 32.3652 25.8828 34.1877 28.7916 34.8862C31.7003 35.5847 34.7673 35.1023 37.3212 33.5446C39.8751 31.9869 41.7078 29.4808 42.4181 26.5749C43.1284 23.669 42.6584 20.6 41.1111 18.0398C40.2647 16.6534 39.1277 15.4669 37.7786 14.5623C37.3464 16.4264 36.5466 18.1856 35.4259 19.7368C34.3052 21.2879 32.8863 22.5998 31.2521 23.5956H31.2537Z" fill="#0560FD"/>
</svg>
