<svg width="20" height="13" viewBox="0 0 20 13" fill="none" xmlns="http://www.w3.org/2000/svg">
<path d="M18.9319 1.44458C19.2971 1.6438 19.5295 1.97583 19.5295 2.37427V10.8743C19.5295 11.2727 19.2971 11.6379 18.9319 11.8372C18.7991 11.9036 18.6331 11.9368 18.467 11.9368C18.2346 11.9368 18.0354 11.9036 17.8362 11.7708L14.4163 9.38013C14.1838 9.21411 14.1174 8.88208 14.2834 8.61646C14.4495 8.38403 14.7815 8.31763 15.0471 8.48364L18.467 10.8743V2.37427L15.0471 4.76489C14.7815 4.93091 14.4495 4.89771 14.2834 4.66528C14.1174 4.39966 14.1838 4.06763 14.4163 3.90161L17.8362 1.51099C18.1682 1.27856 18.5999 1.27856 18.9319 1.44458ZM11.0295 0.249268C12.1917 0.249268 13.1545 1.21216 13.1545 2.37427V10.8743C13.1545 12.0696 12.1917 12.9993 11.0295 12.9993H2.52954C1.33423 12.9993 0.404541 12.0696 0.404541 10.8743V2.37427C0.404541 1.21216 1.33423 0.249268 2.52954 0.249268H11.0295ZM12.092 10.8743V2.37427C12.092 1.80981 11.594 1.31177 11.0295 1.31177H2.52954C1.93188 1.31177 1.46704 1.80981 1.46704 2.37427V10.8743C1.46704 11.4719 1.93188 11.9368 2.52954 11.9368H11.0295C11.594 11.9368 12.092 11.4719 12.092 10.8743ZM9.43579 6.09302C9.70142 6.09302 9.96704 6.35864 9.96704 6.62427C9.96704 6.9231 9.70142 7.15552 9.43579 7.15552H7.27759V9.31372C7.27759 9.57935 7.04517 9.81177 6.77954 9.81177C6.48071 9.81177 6.24829 9.57935 6.24829 9.28052V7.15552H4.09009C3.82446 7.15552 3.59204 6.9231 3.59204 6.62427C3.59204 6.35864 3.82446 6.09302 4.09009 6.09302H6.24829V3.96802C6.24829 3.70239 6.48071 3.43677 6.77954 3.43677C7.04517 3.43677 7.27759 3.70239 7.27759 3.96802V6.09302H9.43579Z" fill="#0560FD"/>
</svg>
