<svg width="18" height="18" viewBox="0 0 18 18" fill="none" xmlns="http://www.w3.org/2000/svg">
<path d="M5.74829 16.5618C6.01392 16.5618 6.27954 16.8274 6.27954 17.093C6.27954 17.3918 6.01392 17.6243 5.74829 17.6243H2.56079C1.66431 17.6243 0.967041 16.927 0.967041 16.0305V12.843C0.967041 12.5774 1.19946 12.3118 1.49829 12.3118C1.76392 12.3118 2.02954 12.5774 2.02954 12.843V16.0305C2.02954 16.3293 2.26196 16.5618 2.56079 16.5618H5.74829ZM1.49829 5.93677C1.19946 5.93677 0.967041 5.70435 0.967041 5.40552V2.21802C0.967041 1.35474 1.66431 0.624268 2.56079 0.624268H5.74829C6.01392 0.624268 6.27954 0.889893 6.27954 1.15552C6.27954 1.45435 6.01392 1.68677 5.74829 1.68677H2.56079C2.26196 1.68677 2.02954 1.95239 2.02954 2.21802V5.40552C2.02954 5.70435 1.76392 5.93677 1.49829 5.93677ZM17.4358 12.3118C17.7014 12.3118 17.967 12.5774 17.967 12.843V16.0305C17.967 16.927 17.2366 17.6243 16.3733 17.6243H13.1858C12.887 17.6243 12.6545 17.3918 12.6545 17.093C12.6545 16.8274 12.887 16.5618 13.1858 16.5618H16.3733C16.6389 16.5618 16.9045 16.3293 16.9045 16.0305V12.843C16.9045 12.5774 17.137 12.3118 17.4358 12.3118ZM16.3733 0.624268C17.2366 0.624268 17.967 1.35474 17.967 2.21802V5.40552C17.967 5.70435 17.7014 5.93677 17.4358 5.93677C17.137 5.93677 16.9045 5.70435 16.9045 5.40552V2.21802C16.9045 1.95239 16.6389 1.68677 16.3733 1.68677H13.1858C12.887 1.68677 12.6545 1.45435 12.6545 1.15552C12.6545 0.889893 12.887 0.624268 13.1858 0.624268H16.3733ZM9.46704 3.81177C12.3889 3.81177 14.7795 6.20239 14.7795 9.12427C14.7795 12.0793 12.3889 14.4368 9.46704 14.4368C6.51196 14.4368 4.15454 12.0793 4.15454 9.12427C4.15454 6.20239 6.51196 3.81177 9.46704 3.81177ZM9.46704 13.3743C11.7913 13.3743 13.717 11.4817 13.717 9.12427C13.717 6.80005 11.7913 4.87427 9.46704 4.87427C7.10962 4.87427 5.21704 6.80005 5.21704 9.12427C5.21704 11.4817 7.10962 13.3743 9.46704 13.3743ZM10.7952 8.59302C10.3303 8.59302 9.99829 8.26099 9.99829 7.79614C9.99829 7.3645 10.3303 6.99927 10.7952 6.99927C11.2268 6.99927 11.592 7.3645 11.592 7.79614C11.592 8.26099 11.2268 8.59302 10.7952 8.59302ZM8.13892 8.59302C7.67407 8.59302 7.34204 8.26099 7.34204 7.79614C7.34204 7.3645 7.67407 6.99927 8.13892 6.99927C8.57056 6.99927 8.93579 7.3645 8.93579 7.79614C8.93579 8.26099 8.57056 8.59302 8.13892 8.59302ZM11.8577 9.85474C12.0901 9.98755 12.1897 10.3196 12.0237 10.5852C11.4924 11.4817 10.5295 12.0461 9.46704 12.0461C8.40454 12.0461 7.40845 11.4817 6.8772 10.5852C6.71118 10.3196 6.81079 9.98755 7.04321 9.85474C7.30884 9.68872 7.64087 9.78833 7.77368 10.0208C8.13892 10.6184 8.76978 10.9836 9.46704 10.9836C10.1311 10.9836 10.762 10.6184 11.1272 10.054C11.26 9.78833 11.592 9.68872 11.8577 9.85474Z" fill="#0560FD"/>
</svg>
