<svg width="18" height="16" viewBox="0 0 18 16" fill="none" xmlns="http://www.w3.org/2000/svg">
<path d="M15.842 0.686768C17.0042 0.686768 17.967 1.64966 17.967 2.81177V13.4368C17.967 14.6321 17.0042 15.5618 15.842 15.5618H3.09204C1.89673 15.5618 0.967041 14.6321 0.967041 13.4368V2.81177C0.967041 1.64966 1.89673 0.686768 3.09204 0.686768H15.842ZM6.27954 14.4993V6.3645H2.02954V13.4368C2.02954 14.0344 2.49438 14.4993 3.09204 14.4993H6.27954ZM16.9045 13.4368V6.3645H7.34204V14.4993H15.842C16.4065 14.4993 16.9045 14.0344 16.9045 13.4368ZM16.9045 5.302V2.81177C16.9045 2.24731 16.4065 1.74927 15.842 1.74927H3.09204C2.49438 1.74927 2.02954 2.24731 2.02954 2.81177V5.302H16.9045Z" fill="#0560FD"/>
</svg>
