<svg width="19" height="19" viewBox="0 0 19 19" fill="none" xmlns="http://www.w3.org/2000/svg">
<g id="Union">
<path d="M6.32609 5.66725C6.32609 6.20802 5.88771 6.6464 5.34693 6.6464C4.80616 6.6464 4.36778 6.20802 4.36778 5.66725C4.36778 5.12648 4.80616 4.68809 5.34693 4.68809C5.88771 4.68809 6.32609 5.12648 6.32609 5.66725Z" fill="#0560FD"/>
<path d="M6.32609 8.60471C6.32609 8.06393 5.88771 7.62555 5.34693 7.62555C4.80616 7.62555 4.36778 8.06393 4.36778 8.60471V13.5005C4.36778 14.0412 4.80616 14.4796 5.34693 14.4796C5.88771 14.4796 6.32609 14.0412 6.32609 13.5005V8.60471Z" fill="#0560FD"/>
<path d="M7.30524 9.5972V13.5005C7.30524 14.0412 7.74362 14.4796 8.28439 14.4796C8.82516 14.4796 9.26354 14.0412 9.26354 13.5005V9.91661C9.56207 9.57949 10.0671 9.1845 10.6278 8.94465C10.9537 8.80526 11.444 8.74953 11.7849 8.85674C11.9341 8.90364 12.0192 8.96952 12.0717 9.04056C12.1228 9.10963 12.201 9.26143 12.201 9.58382V13.5004C12.201 14.0412 12.6394 14.4796 13.1802 14.4796C13.7209 14.4796 14.1593 14.0412 14.1593 13.5004V9.58382C14.1593 8.92704 13.9927 8.34447 13.646 7.87587C13.3008 7.40923 12.8351 7.13411 12.3723 6.9886C11.4893 6.71097 10.5109 6.86471 9.85759 7.14417C9.65034 7.23283 9.44597 7.33606 9.24795 7.45056C9.16545 6.99329 8.76543 6.6464 8.28439 6.6464C7.74362 6.6464 7.30524 7.08478 7.30524 7.62555V9.56864C7.3051 9.57817 7.3051 9.58769 7.30524 9.5972Z" fill="#0560FD"/>
<path fill-rule="evenodd" clip-rule="evenodd" d="M0.451172 3.70894C0.451172 2.08663 1.76632 0.771484 3.38863 0.771484H15.1385C16.7608 0.771484 18.0759 2.08663 18.0759 3.70894V15.4588C18.0759 17.0811 16.7608 18.3962 15.1385 18.3962H3.38863C1.76632 18.3962 0.451172 17.0811 0.451172 15.4588V3.70894ZM3.38863 2.72979C2.84786 2.72979 2.40948 3.16817 2.40948 3.70894V15.4588C2.40948 15.9995 2.84786 16.4379 3.38863 16.4379H15.1385C15.6792 16.4379 16.1176 15.9995 16.1176 15.4588V3.70894C16.1176 3.16817 15.6792 2.72979 15.1385 2.72979H3.38863Z" fill="#0560FD"/>
</g>
</svg>
