<svg width="136" height="51" viewBox="0 0 136 51" fill="none" xmlns="http://www.w3.org/2000/svg">
<path d="M27.5687 15.746C28.5657 17.3794 29.2268 19.1954 29.513 21.0875C29.7993 22.9797 29.705 24.9099 29.2357 26.7652C30.8494 26.5783 32.4034 26.0438 33.7907 25.1985C35.065 24.4283 36.1747 23.414 37.0561 22.2139C37.9374 21.0138 38.5732 19.6514 38.9267 18.205C39.2803 16.7585 39.3447 15.2565 39.1163 13.7852C38.8879 12.3138 38.3712 10.902 37.5959 9.63074C36.8205 8.35954 35.8018 7.25396 34.5981 6.37745C33.3944 5.50094 32.0295 4.87076 30.5816 4.52308C29.1338 4.17539 27.6315 4.11704 26.1611 4.35138C24.6906 4.58572 23.2809 5.10813 22.0128 5.88863C20.5753 6.76519 19.415 7.91269 18.5353 9.22116C20.3995 9.65332 22.1587 10.4532 23.7098 11.5738C25.2609 12.6945 26.5729 14.1119 27.5687 15.746Z" fill="#0560FD"/>
<path d="M15.7462 23.4758C17.3798 22.4783 19.196 21.8171 21.0885 21.5308C22.981 21.2446 24.9116 21.339 26.767 21.8087C26.5794 20.195 26.0444 18.641 25.1988 17.2538C23.6307 14.7063 21.1172 12.8837 18.2084 12.1852C15.2997 11.4867 12.2326 11.9691 9.67875 13.5268C7.12486 15.0845 5.29217 17.5907 4.58188 20.4966C3.87159 23.4025 4.34155 26.4714 5.8889 29.0316C6.76547 30.4676 7.91297 31.6294 9.22303 32.5108C9.65436 30.6461 10.4537 28.8862 11.5741 27.3345C12.6945 25.7827 14.1135 24.4703 15.7478 23.4742L15.7462 23.4758Z" fill="#0560FD"/>
<path d="M29.0062 45.1109C30.3925 44.2636 31.5789 43.1262 32.4838 41.7768C30.6193 41.3453 28.8597 40.546 27.3083 39.4255C25.7568 38.3051 24.4447 36.8862 23.4488 35.252C22.452 33.6188 21.7912 31.803 21.5052 29.9111C21.2192 28.0192 21.3138 26.0892 21.7833 24.2344C20.1692 24.4213 18.6147 24.9558 17.2268 25.801C15.9525 26.5712 14.8428 27.5855 13.9614 28.7856C13.08 29.9858 12.4443 31.3481 12.0908 32.7946C11.7372 34.241 11.6728 35.743 11.9011 37.2144C12.1295 38.6858 12.6462 40.0976 13.4216 41.3688C14.1969 42.64 15.2157 43.7456 16.4194 44.6221C17.6231 45.4986 18.988 46.1288 20.4359 46.4765C21.8837 46.8241 23.386 46.8825 24.8564 46.6482C26.3269 46.4138 27.7366 45.8914 29.0046 45.1109H29.0062Z" fill="#0560FD"/>
<path d="M35.2537 27.5956C33.6203 28.5927 31.8043 29.2538 29.9121 29.54C28.02 29.8263 26.0897 29.732 24.2345 29.2627C24.4213 30.8764 24.9558 32.4304 25.8012 33.8176C27.3692 36.3652 29.8827 38.1877 32.7915 38.8862C35.7003 39.5847 38.7673 39.1023 41.3212 37.5446C43.8751 35.9869 45.7078 33.4808 46.4181 30.5749C47.1283 27.669 46.6584 24.6 45.111 22.0398C44.2646 20.6534 43.1277 19.4669 41.7785 18.5623C41.3463 20.4264 40.5465 22.1856 39.4258 23.7368C38.3052 25.2879 36.8862 26.5998 35.2521 27.5956H35.2537Z" fill="#0560FD"/>
<path d="M68.1422 33.5V16.9257H70.9452V33.5H68.1422ZM62.585 18.9975V16.4382H76.5025V18.9975H62.585ZM76.0784 33.5V21.8005H78.7596V33.5H76.0784ZM78.7596 26.9922L77.8333 26.5291C77.8333 25.0504 78.1583 23.856 78.8083 22.9461C79.4745 22.0199 80.4739 21.5568 81.8063 21.5568C82.3913 21.5568 82.9194 21.6624 83.3906 21.8736C83.8618 22.0849 84.3006 22.4261 84.7068 22.8973L82.9519 24.701C82.7406 24.4735 82.505 24.311 82.245 24.2135C81.985 24.116 81.6844 24.0673 81.3432 24.0673C80.5957 24.0673 79.9782 24.3029 79.4908 24.7741C79.0033 25.2454 78.7596 25.9847 78.7596 26.9922ZM91.0094 33.7437C89.8719 33.7437 88.8401 33.4756 87.9139 32.9394C86.9877 32.3869 86.2483 31.6476 85.6958 30.7214C85.1596 29.7952 84.8915 28.7633 84.8915 27.6259C84.8915 26.4884 85.1596 25.4647 85.6958 24.5548C86.2483 23.6448 86.9877 22.9217 87.9139 22.3855C88.8401 21.833 89.8719 21.5568 91.0094 21.5568C92.1631 21.5568 93.203 21.8249 94.1292 22.3611C95.0554 22.8973 95.7866 23.6286 96.3229 24.5548C96.8753 25.4647 97.1516 26.4884 97.1516 27.6259C97.1516 28.7633 96.8753 29.7952 96.3229 30.7214C95.7866 31.6476 95.0554 32.3869 94.1292 32.9394C93.203 33.4756 92.1631 33.7437 91.0094 33.7437ZM91.0094 31.1601C91.6756 31.1601 92.2606 31.0139 92.7643 30.7214C93.2843 30.4126 93.6824 29.9902 93.9586 29.4539C94.2511 28.9177 94.3973 28.3084 94.3973 27.6259C94.3973 26.9434 94.2511 26.3422 93.9586 25.8222C93.6661 25.3022 93.268 24.896 92.7643 24.6035C92.2606 24.2948 91.6756 24.1404 91.0094 24.1404C90.3594 24.1404 89.7744 24.2948 89.2544 24.6035C88.7507 24.896 88.3526 25.3022 88.0601 25.8222C87.7839 26.3422 87.6458 26.9434 87.6458 27.6259C87.6458 28.3084 87.7839 28.9177 88.0601 29.4539C88.3526 29.9902 88.7507 30.4126 89.2544 30.7214C89.7744 31.0139 90.3594 31.1601 91.0094 31.1601ZM102.925 33.5L97.5873 21.8005H100.561L104.631 31.3307H102.876L106.971 21.8005H109.823L104.485 33.5H102.925ZM116.432 33.7437C115.262 33.7437 114.206 33.4838 113.264 32.9638C112.337 32.4275 111.598 31.6963 111.046 30.7701C110.509 29.8439 110.241 28.804 110.241 27.6503C110.241 26.4966 110.509 25.4647 111.046 24.5548C111.582 23.6286 112.305 22.8973 113.215 22.3611C114.141 21.8249 115.165 21.5568 116.286 21.5568C117.375 21.5568 118.333 21.8086 119.162 22.3124C120.007 22.8161 120.665 23.5067 121.136 24.3841C121.624 25.2616 121.868 26.2609 121.868 27.3821C121.868 27.5771 121.851 27.7803 121.819 27.9915C121.803 28.1865 121.77 28.4058 121.721 28.6496H112.118V26.4559H120.332L119.333 27.3334C119.3 26.6184 119.162 26.0172 118.918 25.5297C118.675 25.0422 118.325 24.6685 117.87 24.4085C117.432 24.1485 116.887 24.0185 116.237 24.0185C115.555 24.0185 114.962 24.1648 114.458 24.4573C113.954 24.7498 113.564 25.1641 113.288 25.7003C113.012 26.2203 112.874 26.8459 112.874 27.5771C112.874 28.3084 113.02 28.9502 113.312 29.5027C113.605 30.0552 114.019 30.4858 114.556 30.7945C115.092 31.087 115.709 31.2332 116.408 31.2332C117.009 31.2332 117.562 31.1276 118.065 30.9164C118.585 30.7051 119.024 30.3964 119.382 29.9902L121.088 31.7207C120.519 32.3869 119.828 32.8907 119.016 33.2319C118.203 33.5731 117.342 33.7437 116.432 33.7437ZM132.036 33.5V26.7484C132.036 25.9685 131.784 25.3266 131.28 24.8229C130.793 24.3192 130.159 24.0673 129.379 24.0673C128.859 24.0673 128.396 24.181 127.99 24.4085C127.584 24.636 127.267 24.9529 127.039 25.3591C126.812 25.7653 126.698 26.2284 126.698 26.7484L125.65 26.1634C125.65 25.2697 125.845 24.4816 126.235 23.7992C126.625 23.1005 127.161 22.5561 127.844 22.1661C128.542 21.7599 129.322 21.5568 130.184 21.5568C131.061 21.5568 131.841 21.7843 132.523 22.2392C133.206 22.678 133.742 23.2548 134.132 23.9698C134.522 24.6685 134.717 25.3997 134.717 26.1634V33.5H132.036ZM124.017 33.5V21.8005H126.698V33.5H124.017Z" fill="#212325"/>
</svg>
