<svg width="18" height="18" viewBox="0 0 18 18" fill="none" xmlns="http://www.w3.org/2000/svg">
<path d="M11.7561 6.25366C11.9553 6.05444 12.3206 6.05444 12.5198 6.25366C12.719 6.45288 12.719 6.81812 12.5198 7.01733L8.26978 11.2673C8.17017 11.3669 8.03735 11.4001 7.90454 11.4001C7.73853 11.4001 7.60571 11.3669 7.5061 11.2673L5.3811 9.14233C5.18188 8.94312 5.18188 8.57788 5.3811 8.37866C5.58032 8.17944 5.94556 8.17944 6.14478 8.37866L7.90454 10.1384L11.7561 6.25366ZM8.96704 0.243896C13.6487 0.243896 17.467 4.06226 17.467 8.7439C17.467 13.4587 13.6487 17.2439 8.96704 17.2439C4.2522 17.2439 0.467041 13.4587 0.467041 8.7439C0.467041 4.06226 4.2522 0.243896 8.96704 0.243896ZM8.96704 16.1814C13.051 16.1814 16.4045 12.8611 16.4045 8.7439C16.4045 4.65991 13.051 1.3064 8.96704 1.3064C4.84985 1.3064 1.52954 4.65991 1.52954 8.7439C1.52954 12.8611 4.84985 16.1814 8.96704 16.1814Z" fill="#0560FD"/>
</svg>
