<svg width="148" height="121" viewBox="0 0 148 121" fill="none" xmlns="http://www.w3.org/2000/svg">
<path id="&#226;&#128;&#156;" opacity="0.1" d="M67.0255 15.1329L40.9161 63.8493L24.4635 68.506C26.371 64.9239 28.517 62.0582 30.9015 59.909C33.2859 57.5209 36.028 56.3269 39.1277 56.3269C46.0426 56.3269 52.2421 59.1926 57.7263 64.9239C63.4489 70.4164 66.3102 77.5806 66.3102 86.4164C66.3102 95.7299 63.0912 103.73 56.6533 110.416C50.4538 117.103 42.7044 120.446 33.4051 120.446C24.5827 120.446 16.8333 117.222 10.1569 110.775C3.71898 104.088 0.5 95.9687 0.5 86.4164C0.5 82.5955 1.21533 78.1776 2.64599 73.1627C4.31509 68.1478 7.29562 61.5806 11.5876 53.4612L40.2007 0.446289L67.0255 15.1329ZM147.5 15.1329L121.391 63.8493L105.296 68.506C106.965 64.9239 108.991 62.0582 111.376 59.909C113.999 57.5209 116.741 56.3269 119.602 56.3269C126.517 56.3269 132.836 59.1926 138.558 64.9239C144.281 70.4164 147.142 77.5806 147.142 86.4164C147.142 95.7299 143.923 103.73 137.485 110.416C131.286 117.103 123.536 120.446 114.237 120.446C105.415 120.446 97.6654 117.222 90.989 110.775C84.5511 104.088 81.3321 95.9687 81.3321 86.4164C81.3321 82.5955 82.0474 78.1776 83.4781 73.1627C84.9088 68.1478 87.7701 61.5806 92.062 53.4612L121.033 0.446289L147.5 15.1329Z" fill="#F8FAFE"/>
</svg>
