<svg width="25" height="24" viewBox="0 0 25 24" fill="none" xmlns="http://www.w3.org/2000/svg">
<path d="M11.0366 8.0035C10.5718 8.0035 10.2397 7.67147 10.2397 7.20662C10.2397 6.77498 10.5718 6.40975 11.0366 6.40975H20.0679C20.4995 6.40975 20.8647 6.77498 20.8647 7.20662C20.8647 7.67147 20.4995 8.0035 20.0679 8.0035H11.0366ZM5.4585 16.7691C6.02295 16.7691 6.521 17.2672 6.521 17.8316C6.521 18.4293 6.02295 18.8941 5.4585 18.8941C4.86084 18.8941 4.396 18.4293 4.396 17.8316C4.396 17.2672 4.86084 16.7691 5.4585 16.7691ZM20.0679 11.7222C20.4995 11.7222 20.8647 12.0875 20.8647 12.5191C20.8647 12.984 20.4995 13.316 20.0679 13.316H11.0366C10.5718 13.316 10.2397 12.984 10.2397 12.5191C10.2397 12.0875 10.5718 11.7222 11.0366 11.7222H20.0679ZM20.0679 17.0347C20.4995 17.0347 20.8647 17.4 20.8647 17.8316C20.8647 18.2965 20.4995 18.6285 20.0679 18.6285H9.97412C9.50928 18.6285 9.17725 18.2965 9.17725 17.8316C9.17725 17.4 9.50928 17.0347 9.97412 17.0347H20.0679ZM7.78271 5.34725C8.08154 5.04842 8.57959 5.01522 8.87842 5.31404C9.21045 5.61287 9.21045 6.11092 8.91162 6.44295L6.521 9.0992C6.38818 9.23201 6.18896 9.33162 5.95654 9.33162C5.75732 9.33162 5.55811 9.26522 5.42529 9.0992L4.09717 7.77108C3.76514 7.47225 3.76514 6.9742 4.09717 6.64217C4.396 6.34334 4.89404 6.34334 5.19287 6.64217L5.95654 7.40584L7.78271 5.34725ZM7.78271 10.6597C8.08154 10.3609 8.57959 10.3277 8.87842 10.6265C9.21045 10.9254 9.21045 11.4234 8.91162 11.7555L6.521 14.4117C6.38818 14.5445 6.18896 14.6441 5.95654 14.6441C5.75732 14.6441 5.55811 14.5777 5.42529 14.4117L4.09717 13.0836C3.76514 12.7847 3.76514 12.2867 4.09717 11.9547C4.396 11.6558 4.89404 11.6558 5.19287 11.9547L5.95654 12.7183L7.78271 10.6597Z" fill="#0560FD"/>
</svg>
