<svg width="25" height="25" viewBox="0 0 25 25" fill="none" xmlns="http://www.w3.org/2000/svg">
<path d="M11.0366 8.09688C10.5718 8.09688 10.2397 7.76485 10.2397 7.30001C10.2397 6.86837 10.5718 6.50313 11.0366 6.50313H20.0679C20.4995 6.50313 20.8647 6.86837 20.8647 7.30001C20.8647 7.76485 20.4995 8.09688 20.0679 8.09688H11.0366ZM5.4585 16.8625C6.02295 16.8625 6.521 17.3606 6.521 17.925C6.521 18.5227 6.02295 18.9875 5.4585 18.9875C4.86084 18.9875 4.396 18.5227 4.396 17.925C4.396 17.3606 4.86084 16.8625 5.4585 16.8625ZM20.0679 11.8156C20.4995 11.8156 20.8647 12.1809 20.8647 12.6125C20.8647 13.0774 20.4995 13.4094 20.0679 13.4094H11.0366C10.5718 13.4094 10.2397 13.0774 10.2397 12.6125C10.2397 12.1809 10.5718 11.8156 11.0366 11.8156H20.0679ZM20.0679 17.1281C20.4995 17.1281 20.8647 17.4934 20.8647 17.925C20.8647 18.3899 20.4995 18.7219 20.0679 18.7219H9.97412C9.50928 18.7219 9.17725 18.3899 9.17725 17.925C9.17725 17.4934 9.50928 17.1281 9.97412 17.1281H20.0679ZM7.78271 5.44063C8.08154 5.1418 8.57959 5.1086 8.87842 5.40743C9.21045 5.70626 9.21045 6.2043 8.91162 6.53633L6.521 9.19258C6.38818 9.3254 6.18896 9.42501 5.95654 9.42501C5.75732 9.42501 5.55811 9.3586 5.42529 9.19258L4.09717 7.86446C3.76514 7.56563 3.76514 7.06758 4.09717 6.73555C4.396 6.43673 4.89404 6.43673 5.19287 6.73555L5.95654 7.49923L7.78271 5.44063ZM7.78271 10.7531C8.08154 10.4543 8.57959 10.4211 8.87842 10.7199C9.21045 11.0188 9.21045 11.5168 8.91162 11.8488L6.521 14.5051C6.38818 14.6379 6.18896 14.7375 5.95654 14.7375C5.75732 14.7375 5.55811 14.6711 5.42529 14.5051L4.09717 13.177C3.76514 12.8781 3.76514 12.3801 4.09717 12.0481C4.396 11.7492 4.89404 11.7492 5.19287 12.0481L5.95654 12.8117L7.78271 10.7531Z" fill="#0560FD"/>
</svg>
