<svg width="25" height="25" viewBox="0 0 25 25" fill="none" xmlns="http://www.w3.org/2000/svg">
<path d="M17.9551 13.8409L20.6113 16.4972C20.9102 16.8292 20.9102 17.3273 20.6113 17.6261L17.9551 20.2823C17.8223 20.4484 17.623 20.5148 17.4238 20.5148C17.1914 20.5148 16.9922 20.4484 16.8594 20.2823C16.5273 19.9835 16.5273 19.4855 16.8594 19.1866L18.1543 17.8585H14.502C14.2363 17.8585 14.0039 17.7589 13.8711 17.5597L11.9785 15.0363L12.9414 13.7081L14.9004 16.2648H18.1543L16.8262 14.9698C16.4941 14.671 16.4941 14.173 16.8262 13.8741C17.125 13.5421 17.623 13.5421 17.9551 13.8409ZM4.67383 9.35852C4.20898 9.35852 3.87695 9.02649 3.87695 8.56165C3.87695 8.13 4.20898 7.76477 4.67383 7.76477H8.12695C8.35938 7.76477 8.5918 7.89758 8.75781 8.0968L10.6172 10.6202L9.6543 11.9484L7.72852 9.35852H4.67383ZM18.1543 9.35852H14.9004L8.75781 17.5597C8.5918 17.7589 8.35938 17.8585 8.12695 17.8585H4.67383C4.20898 17.8585 3.87695 17.5265 3.87695 17.0616C3.87695 16.63 4.20898 16.2648 4.67383 16.2648H7.72852L13.8379 8.0968C14.0039 7.89758 14.2363 7.76477 14.502 7.76477H18.1543L16.8594 6.46985C16.5273 6.17102 16.5273 5.67297 16.8594 5.37415C17.1582 5.04211 17.6562 5.04211 17.9551 5.37415L20.6113 8.0304C20.9102 8.32922 20.9102 8.82727 20.6113 9.1593L17.9551 11.7823C17.8223 11.9484 17.623 12.0148 17.4238 12.0148C17.1914 12.0148 16.9922 11.9484 16.8594 11.7823C16.5273 11.4835 16.5273 10.9855 16.8594 10.6866L18.1543 9.35852Z" fill="#0560FD"/>
</svg>
