<svg width="25" height="25" viewBox="0 0 25 25" fill="none" xmlns="http://www.w3.org/2000/svg">
<path d="M5.98145 10.1483C7.14355 10.1483 8.10645 11.1112 8.10645 12.2733C8.10645 13.4686 7.14355 14.3983 5.98145 14.3983C4.78613 14.3983 3.85645 13.4686 3.85645 12.2733C3.85645 11.1112 4.78613 10.1483 5.98145 10.1483ZM5.98145 13.0702C6.41309 13.0702 6.77832 12.7382 6.77832 12.2733C6.77832 11.8417 6.41309 11.4764 5.98145 11.4764C5.5166 11.4764 5.18457 11.8417 5.18457 12.2733C5.18457 12.7382 5.5166 13.0702 5.98145 13.0702ZM5.98145 15.4608C7.14355 15.4608 8.10645 16.4237 8.10645 17.5858C8.10645 18.7811 7.14355 19.7108 5.98145 19.7108C4.78613 19.7108 3.85645 18.7811 3.85645 17.5858C3.85645 16.4237 4.78613 15.4608 5.98145 15.4608ZM5.98145 18.3827C6.41309 18.3827 6.77832 18.0507 6.77832 17.5858C6.77832 17.1542 6.41309 16.7889 5.98145 16.7889C5.5166 16.7889 5.18457 17.1542 5.18457 17.5858C5.18457 18.0507 5.5166 18.3827 5.98145 18.3827ZM7.14355 5.20105C7.37598 5.36707 7.5752 5.56628 7.74121 5.79871C7.94043 6.13074 8.10645 6.52917 8.10645 6.96082C8.10645 7.42566 7.94043 7.8241 7.74121 8.15613C7.5752 8.38855 7.37598 8.58777 7.14355 8.75378C6.81152 8.953 6.41309 9.08582 5.98145 9.08582C4.78613 9.08582 3.85645 8.15613 3.85645 6.96082C3.85645 5.79871 4.78613 4.83582 5.98145 4.83582C6.41309 4.83582 6.81152 5.00183 7.14355 5.20105ZM10.2314 8.02332C9.63379 8.02332 9.16895 7.55847 9.16895 6.96082C9.16895 6.39636 9.63379 5.89832 10.2314 5.89832H19.7939C20.3584 5.89832 20.8564 6.39636 20.8564 6.96082C20.8564 7.55847 20.3584 8.02332 19.7939 8.02332H10.2314ZM19.7939 11.2108C20.3584 11.2108 20.8564 11.7089 20.8564 12.2733C20.8564 12.871 20.3584 13.3358 19.7939 13.3358H10.2314C9.63379 13.3358 9.16895 12.871 9.16895 12.2733C9.16895 11.7089 9.63379 11.2108 10.2314 11.2108H19.7939ZM19.7939 16.5233C20.3584 16.5233 20.8564 17.0214 20.8564 17.5858C20.8564 18.1835 20.3584 18.6483 19.7939 18.6483H10.2314C9.63379 18.6483 9.16895 18.1835 9.16895 17.5858C9.16895 17.0214 9.63379 16.5233 10.2314 16.5233H19.7939Z" fill="#0560FD"/>
</svg>
