<svg width="25" height="25" viewBox="0 0 25 25" fill="none" xmlns="http://www.w3.org/2000/svg">
<path d="M19.7939 5.10913C20.9561 5.10913 21.9189 6.07202 21.9189 7.23413V17.8591C21.9189 19.0544 20.9561 19.9841 19.7939 19.9841H4.91895C3.72363 19.9841 2.79395 19.0544 2.79395 17.8591V7.23413C2.79395 6.07202 3.72363 5.10913 4.91895 5.10913H19.7939ZM20.292 17.8591V7.23413C20.292 6.96851 20.0596 6.70288 19.7607 6.70288H4.91895C4.62012 6.70288 4.3877 6.96851 4.3877 7.23413V17.8591C4.3877 18.158 4.62012 18.3904 4.91895 18.3904H19.7607C20.0596 18.3904 20.292 18.158 20.292 17.8591ZM8.37207 15.2029C8.80371 15.2029 9.13574 15.5681 9.13574 15.9998C9.13574 16.4646 8.80371 16.7966 8.37207 16.7966H6.77832C6.31348 16.7966 5.98145 16.4646 5.98145 15.9998C5.98145 15.5681 6.31348 15.2029 6.77832 15.2029H8.37207ZM14.7471 15.2029C15.1787 15.2029 15.5439 15.5681 15.5439 15.9998C15.5439 16.4646 15.1787 16.7966 14.7471 16.7966H11.0283C10.5635 16.7966 10.2314 16.4646 10.2314 15.9998C10.2314 15.5681 10.5635 15.2029 11.0283 15.2029H14.7471Z" fill="#0560FD"/>
</svg>
