<svg width="39" height="39" viewBox="0 0 39 39" fill="none" xmlns="http://www.w3.org/2000/svg">
<circle opacity="0.2" cx="19.0451" cy="19.4817" r="18.6284" transform="rotate(-180 19.0451 19.4817)" stroke="#DFE7F8" stroke-width="0.671425"/>
<circle cx="19.0451" cy="19.4821" r="13.2122" transform="rotate(-180 19.0451 19.4821)" fill="#DFE7F8"/>
<path d="M20.1229 14.5171C20.3353 14.5171 20.5242 14.5879 20.6658 14.7295C20.9727 15.0128 20.9727 15.5085 20.6658 15.7917L16.6766 19.8046L20.6658 23.7938C20.9727 24.077 20.9727 24.5727 20.6658 24.856C20.3825 25.1629 19.8868 25.1629 19.6036 24.856L15.0715 20.3239C14.7646 20.0406 14.7646 19.5449 15.0715 19.2617L19.6036 14.7295C19.7452 14.5879 19.934 14.5171 20.1229 14.5171Z" fill="#0560FD"/>
</svg>
