<svg width="21" height="21" viewBox="0 0 21 21" fill="none" xmlns="http://www.w3.org/2000/svg">
<g id="Union">
<path d="M8.19462 12.7981C10.1749 14.7784 12.066 15.0395 12.7337 15.064C13.7545 15.1016 14.7358 14.331 15.1236 13.4262C15.218 13.2059 15.1945 12.9408 15.0362 12.7381C14.5003 12.0518 13.7749 11.5601 13.0661 11.0705C12.7599 10.8586 12.3387 10.9242 12.1131 11.2244L11.5249 12.1204C11.4596 12.2198 11.3298 12.2539 11.2266 12.1949C10.8287 11.9673 10.2483 11.5794 9.83083 11.1618C9.41377 10.7448 9.04932 10.1906 8.84475 9.81827C8.791 9.72043 8.82079 9.59946 8.91041 9.5329L9.81459 8.86141C10.0843 8.62799 10.1317 8.23147 9.93318 7.94106C9.49372 7.29816 8.98182 6.48107 8.24093 5.94063C8.03857 5.79302 7.78259 5.77644 7.57124 5.86702C6.66578 6.25508 5.89102 7.23671 5.92864 8.25896C5.95321 8.92671 6.21429 10.8177 8.19462 12.7981Z" fill="#0560FD"/>
<path fill-rule="evenodd" clip-rule="evenodd" d="M10.4092 0.791016C5.00149 0.791016 0.617676 5.17483 0.617676 10.5825C0.617676 12.4328 1.13178 14.1657 2.02526 15.6431L1.1521 18.6118C0.931228 19.3628 1.62899 20.0605 2.37991 19.8396L5.34865 18.9665C6.82608 19.86 8.55898 20.3741 10.4092 20.3741C15.8169 20.3741 20.2007 15.9903 20.2007 10.5825C20.2007 5.17483 15.8169 0.791016 10.4092 0.791016ZM2.57598 10.5825C2.57598 6.25637 6.08303 2.74932 10.4092 2.74932C14.7354 2.74932 18.2424 6.25637 18.2424 10.5825C18.2424 14.9087 14.7354 18.4158 10.4092 18.4158C8.86521 18.4158 7.42831 17.97 6.21664 17.2006C5.86705 16.9787 5.42605 16.9025 5.00259 17.027L3.53229 17.4595L3.96473 15.9892C4.08928 15.5657 4.01308 15.1247 3.79109 14.7751C3.02169 13.5634 2.57598 12.1265 2.57598 10.5825Z" fill="#0560FD"/>
</g>
</svg>
